PathFileType	4	(X/Y/Z)	4_coords_data.trc
DataRate	CameraRate	NumFrames	NumMarkers	Units	OrigDataRate	OrigDataStartFrame	OrigNumFrames
30.0	30.0	5	21	m	30.0	1	50
Frame#	Time	THUMB_TIP	THUMB_IP	THUMB_MCP	THUMB_CMC	INDEX_TIP	INDEX_DIP	INDEX_PIP	INDEX_MCP	MIDDLE_TIP	MIDDLE_DIP	MIDDLE_PIP	MIDDLE_MCP	RING_TIP	RING_DIP	RING_PIP	RING_MCP	PINKY_TIP	PINKY_DIP	PINKY_PIP	PINKY_MCP	WRIST
X1	Y1	Z1	X2	Y2	Z2	X3	Y3	Z3	X4	Y4	Z4	X5	Y5	Z5	X6	Y6	Z6	X7	Y7	Z7	X8	Y8	Z8	X9	Y9	Z9	X10	Y10	Z10	X11	Y11	Z11	X12	Y12	Z12	X13	Y13	Z13	X14	Y14	Z14	X15	Y15	Z15	X16	Y16	Z16	X17	Y17	Z17	X18	Y18	Z18	X19	Y19	Z19	X20	Y20	Z20	X21	Y21	Z21
0	-2.749317978547796e-18	0.5065312706541927	-0.010842094853061424	-0.16351893116817956	0.49878933050219265	-0.015640606115193023	-0.14242303933232564	0.4793421987350398	-0.025693062314249504	-0.12029664806766055	0.4779414507150057	-0.026538234754590828	-0.0757184741646118	0.5004429955782945	-0.016372845532821922	-0.1018743626401486	0.5169967135783516	-0.014045547231957944	-0.10884272708192233	0.5291147354336425	0.00357612499176696	-0.12205787170293553	0.49167486044089115	0.023111188490622436	-0.11655576768512294	0.5038549000447539	-0.019837381296883616	-0.08824215443347971	0.5205340086227035	-0.013707612093358912	-0.0917397631246411	0.5383625808225908	0.006758098400917012	-0.10235608345128433	0.5022919053874456	0.03243981554311426	-0.09639758537873433	0.5304889448698898	0.007459499081660992	-0.08172866177001803	0.5209711780800864	-0.006011121946557507	-0.07445167857304469	0.5413200931916358	0.007053875858604397	-0.08040209579657398	0.5124468034809945	0.03489185556301311	-0.07529319559571762	0.5081080025029215	-0.012147471857861025	-0.0599663394701469	0.5248271727410587	-0.00861040254275136	-0.06094536306960524	0.539534564493689	0.006352933072154232	-0.061722044542510845	0.5136783234241182	0.030031356649416363	-0.053256201073133225	0.462283081001861	-0.023011742144276925	-0.051989820119430985
1	0.03333333333333339	0.5074179951994737	-0.010980678509428965	-0.16323229184816712	0.4992894954336099	-0.015840001492550493	-0.1422963306401867	0.4797561297455242	-0.026001885577303874	-0.12029624571436082	0.47782042630516075	-0.026912827192123956	-0.07573939172347233	0.5002174978395081	-0.016713839834219146	-0.10230363161648137	0.5167760571285768	-0.014514234575249474	-0.10930190647355215	0.5289348806180033	0.002947013299776313	-0.12269136751572557	0.49151204535812987	0.022481934752780708	-0.11707404262416776	0.5030667019403524	-0.019033911465567654	-0.08871478431988106	0.5201298375795556	-0.013903800440076663	-0.09195999048040326	0.5381759241916773	0.0062904987289490455	-0.10272746878591599	0.5021868539649413	0.03211496207214448	-0.09689378742240007	0.53037554657314	0.006920525801711319	-0.08224706556419698	0.5210461174275662	-0.006648292408552581	-0.07490888294214904	0.5414192296167057	0.006406916602185175	-0.0807976685907088	0.5127212215589051	0.03444559872820696	-0.07579992188341017	0.5081760703447311	-0.011269835605522305	-0.06005395989753365	0.525097305115761	-0.008935306182441094	-0.061159304276653725	0.5399312890038777	0.005904618210136547	-0.06189522888534388	0.5140811609851275	0.029630338977651993	-0.05354391123624708	0.4622830810018608	-0.023011742144276925	-0.051989820119430985
2	0.06666666666666676	0.5079985620756776	-0.011014114529014796	-0.163017905015515	0.4995863821648536	-0.01594287596127497	-0.14221063369292697	0.4800112100717985	-0.026211629973453054	-0.12029750227442232	0.47771897861048107	-0.02718693273038031	-0.07575892955975089	0.500041103398485	-0.016959251772058592	-0.1026381003513927	0.5166011929857321	-0.0148548614369578	-0.10966198632568663	0.5287808461480845	0.00249154155114506	-0.12318116474817742	0.4913701984844995	0.022019167462861367	-0.11745828421096849	0.5025734735575381	-0.01860820114462758	-0.089037623449161	0.51982061326103	-0.01403952975838385	-0.092146226642358	0.5380219819545716	0.005951866295871966	-0.10303033485036706	0.5020944235722001	0.03187724290674865	-0.09726550031106806	0.5299329618393698	0.006682439199760859	-0.0827630586302136	0.5210961887885263	-0.007130386181184001	-0.07527191071794942	0.5414871890767514	0.005917212885693579	-0.08111547511270223	0.512924943744161	0.03410558990396306	-0.07618248650164555	0.508291405615232	-0.0106060998640356	-0.060130594689278394	0.5253069367661081	-0.009187294988826089	-0.061338358068276366	0.5402342287283076	0.005560072226852286	-0.06204767737661526	0.514390552231674	0.02931705676591434	-0.05376555676966238	0.4622830810018608	-0.023011742144276925	-0.051989820119430985
3	0.10000000000000014	0.5083252970956919	-0.01095674298348892	-0.1628775553599151	0.49972112436890936	-0.015962023543363957	-0.14216728307284382	0.48014385188604136	-0.026333294129376905	-0.12030436587126164	0.4776369701827934	-0.02737207323311841	-0.07577879476768629	0.49990848926176745	-0.01711604040732706	-0.1028879684461313	0.516467682767579	-0.015077782775556381	-0.10993343622787716	0.5286523728782364	0.002192852553639546	-0.12354476662696662	0.49124936496301796	0.02170663341698731	-0.11772553563727833	0.502252318371748	-0.01836460429191078	-0.08926038894929506	0.519594611675991	-0.014119471961600238	-0.09229744582195326	0.5378992040957866	0.005729692825619859	-0.1032684122148897	0.5020150360803742	0.03171984563788799	-0.0975250365840773	0.5270370572259864	0.007452348672978171	-0.08375711530285235	0.5211261253390741	-0.007469941841102279	-0.07554820977034243	0.5415293273135496	0.005572306357164325	-0.0813610481582192	0.5130660855171939	0.03386486036558334	-0.0764522715160314	0.5084085463329445	-0.010129155343124419	-0.0601928496144199	0.5254601301021143	-0.009369009566236652	-0.061483457750478365	0.5404526922097656	0.005312712875492176	-0.062177811113152126	0.514615151005174	0.029086746276308695	-0.05392552346923879	0.4622830810018609	-0.023011742144276925	-0.051989820119430985
4	0.13333333333333353	0.508443867086741	-0.010823712510841799	-0.16280647276068133	0.4997271500542688	-0.01591065226717514	-0.14216326835605364	0.4801816855446025	-0.026378428361436668	-0.12031789171151441	0.47757346713327553	-0.02748004169570073	-0.07579965224968721	0.4998143358749767	-0.017193355089135998	-0.10306379417423867	0.5163709082363374	-0.015195654431934047	-0.11012701608263448	0.5285484113341186	0.0020322224050624005	-0.12379883055595214	0.4911487838449299	0.021526177000754543	-0.11789208086673969	0.5020502138417107	-0.018216432463675325	-0.08940848803023005	0.5194404687122312	-0.014149224625888412	-0.09241462441146553	0.5378052298530321	0.00561025979057217	-0.10344675357300881	0.501948416515177	0.03163422443181363	-0.09768566664382367	0.5078223063260529	-0.018448053563471678	-0.07011352017888939	0.5211400646586799	-0.0076820603305131074	-0.07574652139508276	0.5415504610582335	0.0053571212941209145	-0.08154095323719612	0.5131528776019553	0.03371382307141968	-0.076622055783796	0.5085022736734188	-0.009807707496500395	-0.0602389909217359	0.5255625621788943	-0.009485630299295167	-0.06159649686609808	0.5405968991057267	0.005153578393293667	-0.062285192027483505	0.5147646544790282	0.028932164068542265	-0.05402943937667887	0.462283081001861	-0.023011742144276925	-0.051989820119430985
